Coordinates
version=1
nRows=8
nColumns=40
inDegrees=yes

Units are S.I. units (second, meters, Newtons, ...)
Angles are in degrees.

endheader
time	pelvis_tilt	pelvis_list	pelvis_rotation	pelvis_tx	pelvis_ty	pelvis_tz	hip_flexion_r	hip_adduction_r	hip_rotation_r	knee_angle_r	knee_angle_r_beta	ankle_angle_r	subtalar_angle_r	mtp_angle_r	hip_flexion_l	hip_adduction_l	hip_rotation_l	knee_angle_l	knee_angle_l_beta	ankle_angle_l	subtalar_angle_l	mtp_angle_l	lumbar_extension	lumbar_bending	lumbar_rotation	arm_flex_r	arm_add_r	arm_rot_r	elbow_flex_r	pro_sup_r	wrist_flex_r	wrist_dev_r	arm_flex_l	arm_add_l	arm_rot_l	elbow_flex_l	pro_sup_l	wrist_flex_l	wrist_dev_l
     32.50228571	     -2.90312546	     -1.87625902	     -2.21469525	      0.95398559	      0.92316476	      0.43658587	     26.24457238	     -2.71048037	    -14.39863347	     15.30865210	     15.30865210	      0.77263125	      2.96550271	      6.66003144	     -3.11113128	     -0.94776972	    -14.47570437	     10.57520818	     10.57520818	     18.03216983	     -0.04602350	     -7.23705017	     -8.44500891	      3.29032376	      1.30695027	    -16.60753891	    -13.09622016	     -8.02518651	     23.29549218	     47.06416848	      0.00000000	      0.00000000	     23.38053356	    -15.00700732	    -10.38330927	     69.71104072	     47.37449669	      0.00000000	      0.00000000
     32.51457143	     -2.95522484	     -1.98945792	     -2.07627172	      0.95538315	      0.92189433	      0.43854984	     25.89632514	     -2.34070942	    -14.09305418	     15.60347020	     15.60347020	     -0.08788055	      1.72612728	      3.85642453	     -3.34993820	     -1.36584062	    -14.69331760	     11.31096773	     11.31096773	     19.17113288	      0.65454543	     -5.99454136	     -8.26580019	      3.39608294	      1.07771614	    -16.49253536	    -12.99803734	     -8.76284391	     23.63748299	     47.09039222	      0.00000000	      0.00000000	     22.86037136	    -14.93279875	    -10.75053747	     69.87966736	     47.41816308	      0.00000000	      0.00000000
     32.52685714	     -2.95979690	     -2.03497509	     -1.91926105	      0.95690492	      0.92085156	      0.44041489	     25.72784083	     -2.21666688	    -14.00300092	     16.58028555	     16.58028555	      0.18273853	      1.15176977	      3.26210879	     -3.82540428	     -1.59943408	    -14.50797576	     11.58445504	     11.58445504	     19.50582369	      0.65347581	     -5.95041540	     -8.13411086	      3.44500238	      1.02543673	    -16.25208541	    -12.92679148	     -8.79886039	     23.66498833	     47.09147235	      0.00000000	      0.00000000	     22.51055837	    -14.82231858	    -10.68502484	     69.58954683	     47.40832478	      0.00000000	      0.00000000
     32.53914286	     -3.10477157	     -2.01470499	     -1.73839316	      0.95838069	      0.91974317	      0.44236635	     25.75696119	     -2.10586287	    -13.47800021	     17.64544793	     17.64544793	      0.28119423	     -0.18441644	      2.06720060	     -3.95081050	     -1.84080456	    -14.35361600	     12.24006837	     12.24006837	     20.01240819	      0.66571448	     -5.57227946	     -7.80519879	      3.43564979	      0.84082710	    -15.75637370	    -12.75428832	     -8.83494339	     23.66076061	     47.09271100	      0.00000000	      0.00000000	     22.00997743	    -14.73000906	    -10.62553859	     68.94377197	     47.39398661	      0.00000000	      0.00000000
     32.55142857	     -3.06895203	     -2.16045665	     -1.54769007	      0.96011711	      0.91936627	      0.44433333	     25.34074245	     -1.87390646	    -13.37381485	     18.34602863	     18.34602863	      0.71292876	     -0.63204612	      1.62004318	     -4.40780475	     -2.21931321	    -14.15154853	     12.62649768	     12.62649768	     20.17790873	      0.58116750	     -5.51666342	     -7.72943914	      3.63887453	      0.91196243	    -15.28839390	    -12.57026340	     -8.80828214	     23.79084924	     47.08771460	      0.00000000	      0.00000000	     21.34524754	    -14.31929944	    -10.47775852	     68.57213864	     47.37299321	      0.00000000	      0.00000000
     32.56371429	     -3.26307101	     -2.17184542	     -1.33162153	      0.96145674	      0.91859222	      0.44652019	     25.53023746	     -1.71536429	    -12.61658452	     19.57002037	     19.57002037	      0.93280008	     -2.50520172	      0.35783094	     -4.10315845	     -2.62656911	    -13.96906310	     13.97802271	     13.97802271	     20.73607862	      0.42730596	     -4.98071880	     -7.37308498	      3.64496692	      0.60684484	    -14.42060849	    -12.52761751	     -8.75439558	     23.80491849	     47.08470782	      0.00000000	      0.00000000	     20.80205380	    -14.36317116	    -10.46911732	     67.30863288	     47.35115947	      0.00000000	      0.00000000
     32.57600000	     -3.32431298	     -2.29585743	     -1.11310708	      0.96297851	      0.91849877	      0.44873167	     25.29338949	     -1.44407101	    -12.15605952	     20.27875825	     20.27875825	      1.27004759	     -3.66091173	     -0.63612646	     -3.97363847	     -3.15204363	    -13.80374101	     15.26274041	     15.26274041	     21.13006824	      0.31816568	     -4.46156142	     -7.19547379	      3.81076582	      0.52938643	    -13.51632734	    -12.40521529	     -8.62852543	     23.80685529	     47.07573900	      0.00000000	      0.00000000	     20.20382091	    -14.08992475	    -10.37927703	     66.05198030	     47.32253857	      0.00000000	      0.00000000
     32.58828571	     -3.30104383	     -2.43017740	     -0.91602369	      0.96459169	      0.91888422	      0.45107634	     24.86031824	     -1.14630092	    -11.78978772	     20.75454961	     20.75454961	      1.43760388	     -4.72501882	     -2.16043673	     -3.80949398	     -3.75541225	    -13.76309067	     16.82661042	     16.82661042	     21.72159980	      0.43130020	     -3.22116961	     -7.09944910	      3.97846413	      0.69660965	    -12.53906128	    -12.31839026	     -8.20207301	     23.54822638	     47.03224494	      0.00000000	      0.00000000	     19.87745181	    -13.60812626	    -10.22755065	     64.06752095	     47.28354907	      0.00000000	      0.00000000
